# Wavefront OBJ exported by MilkShape 3D

mtllib lamp.mtl

v 1.008974 0.285618 1.000648
v -0.991026 0.285618 1.000648
v 1.008974 0.285618 -0.999352
v -0.991026 0.285618 -0.999352
v 1.008974 0.603768 1.000648
v -0.991026 0.603768 1.000648
v 1.008974 0.603768 -0.999352
v -0.991026 0.603768 -0.999352
v 0.898406 0.716438 0.890079
v -0.880457 0.716438 0.890079
v 0.898406 0.716438 -0.888783
v -0.880457 0.716438 -0.888783
v 0.897269 1.887630 0.888943
v -0.879321 1.887630 0.888943
v 0.897269 1.887630 -0.887647
v -0.879321 1.887630 -0.887647
v 0.883491 3.220136 0.875164
v -0.865542 3.220136 0.875164
v 0.883491 3.220136 -0.873868
v -0.865542 3.220136 -0.873868
v 1.192505 3.220136 1.184178
v -1.174556 3.220136 1.184178
v 1.192505 3.220136 -1.182883
v -1.174556 3.220136 -1.182883
v 1.279562 3.390376 1.271235
v -1.261613 3.390376 1.271235
v 1.279562 3.390376 -1.269940
v -1.261613 3.390376 -1.269940
v 1.055950 3.602983 1.047623
v -1.038001 3.602983 1.047623
v 1.055950 3.602983 -1.046328
v -1.038001 3.602983 -1.046328
v 0.633936 3.602983 0.625609
v -0.615987 3.602983 0.625609
v 0.633936 3.602983 -0.624314
v -0.615987 3.602983 -0.624314
v -0.615987 3.845632 -0.624314
v -0.615987 3.602983 -0.624314
v 0.633936 3.602983 -0.624314
v -0.615987 3.602983 0.625609
v 0.633936 3.602983 0.625609
v -0.881803 1.890089 -0.658459
v -0.881803 2.573191 0.024642
v -0.881803 1.890089 0.707744
v -0.881803 1.206988 0.024642
v -1.000132 1.890089 -0.271511
v -1.000132 2.186243 0.024642
v -1.000132 1.890089 0.320796
v -1.000132 1.593935 0.024642
v -2.724311 1.890089 -0.271511
v -2.724311 2.186243 0.024642
v -2.724311 1.890089 0.320796
v -2.724311 1.593935 0.024642
v -2.724311 1.890089 -0.678254
v -2.724311 2.592985 0.024642
v -2.724311 1.890089 0.727539
v -2.724311 1.187193 0.024642
v -2.876531 1.890089 -0.980179
v -2.876531 2.894910 0.024642
v -2.876531 1.890089 1.029463
v -2.876531 0.885268 0.024642
v 0.633936 3.845632 -0.624314
v -0.615987 3.845632 0.625609
v 0.633936 3.845632 0.625609
v 0.008974 4.093045 0.000648
# 65 vertices

vt 0.831759 0.235105
vt 0.607850 0.235792
vt 0.607163 0.011882
vt 0.831072 0.011196
vt 0.518382 0.826177
vt 0.294473 0.826864
vt 0.306813 0.814448
vt 0.505965 0.813837
vt 0.268583 0.565365
vt 0.269270 0.789274
vt 0.233700 0.789383
vt 0.233013 0.565474
vt 0.889622 0.011196
vt 0.890309 0.235105
vt 0.854837 0.235214
vt 0.854150 0.011304
vt 0.888043 0.299512
vt 0.887356 0.523421
vt 0.851884 0.523312
vt 0.852571 0.299403
vt 0.268587 0.318956
vt 0.269274 0.542865
vt 0.233700 0.542974
vt 0.233013 0.319065
vt 0.011196 0.319566
vt 0.210347 0.318956
vt 0.210622 0.449894
vt 0.011724 0.450504
vt 0.517695 0.602268
vt 0.505354 0.614685
vt 0.293786 0.602955
vt 0.306202 0.615296
vt 0.209536 0.598799
vt 0.013724 0.599399
vt 0.740198 0.578399
vt 0.541046 0.579010
vt 0.540773 0.448438
vt 0.739670 0.447828
vt 0.541046 0.601401
vt 0.740198 0.602012
vt 0.739670 0.732583
vt 0.540773 0.731973
vt 0.318956 0.300014
vt 0.518107 0.299403
vt 0.518382 0.430354
vt 0.319484 0.430964
vt 0.353657 0.046498
vt 0.354258 0.242310
vt 0.319769 0.277012
vt 0.318956 0.012009
vt 0.541860 0.300004
vt 0.737672 0.299403
vt 0.737672 0.881008
vt 0.541860 0.880408
vt 0.517296 0.579276
vt 0.321484 0.579877
vt 0.975365 0.267291
vt 0.976178 0.532294
vt 0.956669 0.542101
vt 0.955797 0.257605
vt 0.550070 0.241709
vt 0.549469 0.045897
vt 0.583959 0.011196
vt 0.584772 0.276199
vt 0.296564 0.295692
vt 0.012068 0.296564
vt 0.037026 0.271453
vt 0.271453 0.270734
vt 0.933406 0.267412
vt 0.932593 0.532415
vt 0.912700 0.542101
vt 0.913573 0.257605
vt 0.945236 0.611087
vt 0.946049 0.876090
vt 0.926217 0.885897
vt 0.925344 0.601401
vt 0.987992 0.611088
vt 0.988805 0.876091
vt 0.969313 0.885897
vt 0.968440 0.601401
vt 0.084127 0.224062
vt 0.224062 0.223633
vt 0.295692 0.011196
vt 0.270734 0.036307
vt 0.011196 0.012068
vt 0.036307 0.037026
vt 0.268841 0.811774
vt 0.269270 0.951709
vt 0.242216 0.951792
vt 0.241787 0.811857
vt 0.083698 0.084127
vt 0.223633 0.083698
vt 0.210193 0.803273
vt 0.210622 0.943208
vt 0.183490 0.943291
vt 0.183061 0.803356
vt 0.137660 0.803273
vt 0.138090 0.943208
vt 0.110960 0.943291
vt 0.110531 0.803356
vt 0.320840 0.849255
vt 0.321269 0.989190
vt 0.294215 0.989273
vt 0.293786 0.849338
vt 0.000000 0.000000
vt 0.795745 0.299505
vt 0.796337 0.492534
vt 0.763181 0.492636
vt 0.762589 0.299606
vt 0.762662 0.872238
vt 0.792768 0.842132
vt 0.839626 0.842163
vt 0.870743 0.872311
vt 0.762589 0.764156
vt 0.792736 0.795274
vt 0.839594 0.795305
vt 0.870671 0.764229
vt 0.107059 0.725353
vt 0.074900 0.757512
vt 0.074831 0.646293
vt 0.107030 0.678492
vt 0.913293 0.204336
vt 0.912700 0.011306
vt 0.948718 0.011196
vt 0.949310 0.204225
vt 0.088140 0.803384
vt 0.087548 0.996413
vt 0.051530 0.996303
vt 0.052122 0.803273
vt 0.828901 0.299403
vt 0.829493 0.492433
vt 0.051629 0.780783
vt 0.051530 0.621790
vt 0.153920 0.725382
vt 0.186119 0.757581
vt 0.186050 0.646362
vt 0.153891 0.678522
vt 0.210622 0.780882
vt 0.210523 0.621889
vt 0.902953 0.741336
vt 0.763018 0.741765
vt 0.832771 0.671583
vt 0.762589 0.601831
vt 0.902524 0.601401
# 144 texture coordinates

vn -0.000000 -1.000000 0.000000
vn -0.713732 0.700418 0.000000
vn -1.000000 -0.000000 0.000000
vn 0.000000 0.000000 1.000000
vn 0.000000 -0.000000 -1.000000
vn 1.000000 0.000000 0.000000
vn 0.000000 0.700418 -0.713732
vn 0.713732 0.700418 0.000000
vn 0.000000 0.700418 0.713732
vn -0.999947 0.010340 0.000000
vn 0.000000 0.010340 0.999947
vn 0.000000 0.010340 -0.999947
vn 0.999947 0.010340 0.000000
vn -0.890338 -0.455300 0.000000
vn -0.689049 0.724715 0.000000
vn 0.000000 -0.455300 0.890338
vn 0.000000 -0.455300 -0.890338
vn 0.890338 -0.455300 0.000000
vn 0.000000 1.000000 0.000000
vn 0.000000 0.724715 -0.689049
vn 0.689049 0.724715 0.000000
vn 0.000000 0.724715 0.689049
vn 0.000000 0.000000 0.000000
vn 0.000000 0.707107 0.707107
vn -0.917846 0.280677 0.280677
vn -0.917846 0.280677 -0.280677
vn -0.917846 -0.280677 0.280677
vn -0.917846 -0.280677 -0.280677
vn 0.000000 -0.707107 0.707107
vn 0.000000 -0.707107 -0.707107
vn 0.000000 0.707107 -0.707107
vn 0.814229 0.410507 0.410507
vn 0.814229 0.410507 -0.410507
vn 0.814229 -0.410507 0.410507
vn 0.814229 -0.410507 -0.410507
vn -0.368091 0.929790 0.000000
vn 0.000000 0.929790 0.368091
vn 0.000000 0.929790 -0.368091
vn 0.368091 0.929790 -0.000000
# 39 normals

g base
usemtl base
s 1
f 2/1/1 4/2/1 3/3/1
f 2/1/1 3/3/1 1/4/1
f 8/5/2 6/6/2 10/7/2
f 8/5/2 10/7/2 12/8/2
f 4/9/3 2/10/3 6/11/3
f 4/9/3 6/11/3 8/12/3
f 2/13/4 1/14/4 5/15/4
f 2/13/4 5/15/4 6/16/4
f 3/17/5 4/18/5 8/19/5
f 3/17/5 8/19/5 7/20/5
f 1/21/6 3/22/6 7/23/6
f 1/21/6 7/23/6 5/24/6
f 12/25/3 10/26/3 14/27/3
f 12/25/3 14/27/3 16/28/3
f 7/29/7 8/5/7 12/8/7
f 7/29/7 12/8/7 11/30/7
f 5/31/8 7/29/8 11/30/8
f 5/31/8 11/30/8 9/32/8
f 6/6/9 5/31/9 9/32/9
f 6/6/9 9/32/9 10/7/9
f 16/28/10 14/27/10 18/33/10
f 16/28/10 18/33/10 20/34/10
f 10/35/4 9/36/4 13/37/4
f 10/35/4 13/37/4 14/38/4
f 11/39/5 12/40/5 16/41/5
f 11/39/5 16/41/5 15/42/5
f 9/43/6 11/44/6 15/45/6
f 9/43/6 15/45/6 13/46/6
f 20/47/1 18/48/1 22/49/1
f 20/47/1 22/49/1 24/50/1
f 14/38/11 13/37/11 17/51/11
f 14/38/11 17/51/11 18/52/11
f 15/42/12 16/41/12 20/53/12
f 15/42/12 20/53/12 19/54/12
f 13/46/13 15/45/13 19/55/13
f 13/46/13 19/55/13 17/56/13
f 24/57/14 22/58/14 26/59/14
f 24/57/14 26/59/14 28/60/14
f 17/61/1 19/62/1 23/63/1
f 17/61/1 23/63/1 21/64/1
f 18/48/1 17/61/1 21/64/1
f 18/48/1 21/64/1 22/49/1
f 19/62/1 20/47/1 24/50/1
f 19/62/1 24/50/1 23/63/1
f 28/65/15 26/66/15 30/67/15
f 28/65/15 30/67/15 32/68/15
f 22/69/16 21/70/16 25/71/16
f 22/69/16 25/71/16 26/72/16
f 23/73/17 24/74/17 28/75/17
f 23/73/17 28/75/17 27/76/17
f 21/77/18 23/78/18 27/79/18
f 21/77/18 27/79/18 25/80/18
f 32/68/19 30/67/19 34/81/19
f 32/68/19 34/81/19 36/82/19
f 27/83/20 28/65/20 32/68/20
f 27/83/20 32/68/20 31/84/20
f 25/85/21 27/83/21 31/84/21
f 25/85/21 31/84/21 29/86/21
f 26/66/22 25/85/22 29/86/22
f 26/66/22 29/86/22 30/67/22
f 39/87/5 38/88/5 37/89/5
f 39/87/5 37/89/5 62/90/5
f 30/67/19 29/86/19 33/91/19
f 30/67/19 33/91/19 34/81/19
f 31/84/19 32/68/19 36/82/19
f 31/84/19 36/82/19 35/92/19
f 29/86/19 31/84/19 35/92/19
f 29/86/19 35/92/19 33/91/19
f 41/93/6 39/94/6 62/95/6
f 41/93/6 62/95/6 64/96/6
f 38/97/3 40/98/3 63/99/3
f 38/97/3 63/99/3 37/100/3
f 40/101/4 41/102/4 64/103/4
f 40/101/4 64/103/4 63/104/4
f 34/105/23 33/105/23 41/105/23
f 34/105/23 41/105/23 40/105/23
f 33/105/23 35/105/23 39/105/23
f 33/105/23 39/105/23 41/105/23
f 35/105/23 36/105/23 38/105/23
f 35/105/23 38/105/23 39/105/23
f 36/105/23 34/105/23 40/105/23
f 36/105/23 40/105/23 38/105/23
f 47/106/24 51/107/24 52/108/24
f 47/106/24 52/108/24 48/109/24
f 43/110/25 47/111/25 48/112/25
f 43/110/25 48/112/25 44/113/25
f 42/114/26 46/115/26 47/111/26
f 42/114/26 47/111/26 43/110/26
f 44/113/27 48/112/27 49/116/27
f 44/113/27 49/116/27 45/117/27
f 45/117/28 49/116/28 46/115/28
f 45/117/28 46/115/28 42/114/28
f 51/118/6 55/119/6 56/120/6
f 51/118/6 56/120/6 52/121/6
f 48/122/29 52/123/29 53/124/29
f 48/122/29 53/124/29 49/125/29
f 49/126/30 53/127/30 50/128/30
f 49/126/30 50/128/30 46/129/30
f 46/130/31 50/131/31 51/107/31
f 46/130/31 51/107/31 47/106/31
f 55/119/32 59/132/32 60/133/32
f 55/119/32 60/133/32 56/120/32
f 50/134/6 54/135/6 55/119/6
f 50/134/6 55/119/6 51/118/6
f 52/121/6 56/120/6 57/136/6
f 52/121/6 57/136/6 53/137/6
f 53/137/6 57/136/6 54/135/6
f 53/137/6 54/135/6 50/134/6
f 54/135/33 58/138/33 59/132/33
f 54/135/33 59/132/33 55/119/33
f 56/120/34 60/133/34 61/139/34
f 56/120/34 61/139/34 57/136/34
f 57/136/35 61/139/35 58/138/35
f 57/136/35 58/138/35 54/135/35
f 37/140/36 63/141/36 65/142/36
f 63/141/37 64/143/37 65/142/37
f 62/144/38 37/140/38 65/142/38
f 64/143/39 62/144/39 65/142/39
# 118 triangles in group

# 118 triangles total

